:SAMPLES-PER-SECOND 30
:FULLY-SPECIFIED
:DEGREES
971
root  65.5824 37.4353 16.1113 -177.421 9.3387 -175.279
RightUpLeg  -16.0012 1.71153 -3.75087
RightLeg  26.5238 2.23434 0.986799
RightFoot  -15.5064 0.1211 6.21487
RightToes  1.33877e-009 0 -3.6325e-017
Spine  29.4146 0.862069 11.5274
Spine1  -7.04573 5.26191 -13.7045
HEad  -29.0606 -15.8628 8.40864
LeftShoulder1  2.0878 -11.012 -6.71382
LeftArm  -31.2584 -68.4393 -20.6251
LeftForeArm  -21.0365 -2.63552 -1.46369
LeftHand  0.0225493 8.22803 2.52018
RightShoulder  0.994893 6.70203 1.48966
RightArm  -31.0756 70.4021 15.1221
RightForeArm  -29.4541 -1.17936 1.27839
RightHand  0.124681 2.33535 1.67842
LeftUpLeg  -27.575 7.47007 8.44305
LeftLeg  11.0285 -8.67787 -1.38263
LeftFoot  13.9795 0.805578 -3.96855
LeftToes  -1.45701e-009 4.75788e-011 -4.21586e-011
972
root  65.2814 37.5199 15.6603 -176.107 9.31306 -175.187
RightUpLeg  -16.2274 1.91444 -4.21082
RightLeg  25.2848 1.91321 0.761984
RightFoot  -14.4753 0.0681787 6.09952
RightToes  1.33877e-009 0 -3.6325e-017
Spine  30.8396 0.116023 11.8818
Spine1  -8.42173 4.82412 -15.9985
HEad  -30.3919 -15.9294 9.90694
LeftShoulder1  1.96287 -11.4838 -5.2804
LeftArm  -34.8027 -69.5296 -17.3009
LeftForeArm  -20.1291 -1.10919 -0.638387
LeftHand  -0.0135815 7.19861 1.50705
RightShoulder  1.03878 6.95812 1.69021
RightArm  -34.5862 71.3653 12.1587
RightForeArm  -28.6962 -3.14521 0.686126
RightHand  0.0815018 1.66802 1.19743
LeftUpLeg  -28.7077 7.15213 7.94339
LeftLeg  11.7635 -7.97955 -1.41588
LeftFoot  13.6816 0.544791 -2.83403
LeftToes  -1.45701e-009 4.75788e-011 -4.21586e-011
973
root  65.0027 37.6336 15.2326 -174.613 9.44611 -174.79
RightUpLeg  -16.1775 2.12312 -4.36724
RightLeg  23.2172 1.79231 0.626062
RightFoot  -13.7669 0.0491224 6.72572
RightToes  1.33877e-009 0 -3.6325e-017
Spine  31.3553 0.860463 11.1996
Spine1  -8.13176 5.50334 -15.3941
HEad  -32.2888 -16.3896 10.1851
LeftShoulder1  1.81304 -12.4522 -3.31071
LeftArm  -37.529 -70.7123 -15.9215
LeftForeArm  -20.8034 -0.107411 0.411028
LeftHand  0.0129547 8.10937 2.31135
RightShoulder  0.899265 6.59871 0.545942
RightArm  -38.7718 71.4025 6.9185
RightForeArm  -29.3711 -4.67823 0.459575
RightHand  0.0795769 1.53682 1.19293
LeftUpLeg  -29.9019 9.02918 7.27505
LeftLeg  12.3086 -9.41035 -2.35947
LeftFoot  13.4225 0.16527 -1.12778
LeftToes  -1.45701e-009 4.75788e-011 -4.21586e-011
974
root  64.7472 37.7524 14.7995 -173.041 9.62217 -174.528
RightUpLeg  -16.1495 2.4996 -4.72155
RightLeg  21.0638 2.00624 0.638184
RightFoot  -13.3355 0.0387159 7.40956
RightToes  1.33877e-009 0 -3.6325e-017
Spine  32.1743 1.03732 11.1283
Spine1  -8.8393 5.78681 -16.4161
HEad  -33.2871 -17.0646 11.3174
LeftShoulder1  1.61521 -13.2847 -1.33292
LeftArm  -39.6838 -71.2689 -13.703
LeftForeArm  -22.2876 0.463605 0.711419
LeftHand  0.0147937 8.19348 2.3213
RightShoulder  0.8182 7.35588 -1.0387
RightArm  -40.3917 69.8246 4.77262
RightForeArm  -30.9364 -5.1368 0.0630336
RightHand  0.093309 1.81849 1.35143
LeftUpLeg  -30.9416 9.85731 6.77246
LeftLeg  12.4408 -9.71998 -2.7281
LeftFoot  13.0541 0.0139762 -0.437129
LeftToes  -1.45701e-009 4.75788e-011 -4.21586e-011
975
root  64.5243 37.872 14.3944 -171.178 9.48379 -174.225
RightUpLeg  -16.3123 1.4604 -4.81888
RightLeg  18.6482 2.96405 0.878725
RightFoot  -12.5953 -0.000858876 7.74916
RightToes  1.33877e-009 0 -3.6325e-017
Spine  32.7648 1.04285 10.9049
Spine1  -9.78261 5.74845 -17.0814
HEad  -33.9468 -17.3107 12.3645
LeftShoulder1  1.35576 -13.9183 0.760125
LeftArm  -42.6736 -71.5746 -12.5268
LeftForeArm  -21.3466 1.17675 2.23875
LeftHand  0.000265155 7.86305 1.86963
RightShoulder  0.771517 7.56946 -1.68405
RightArm  -41.6546 69.3506 3.71737
RightForeArm  -31.7289 -5.00936 -0.184365
RightHand  0.0446354 1.83994 0.550784
LeftUpLeg  -32.1762 9.67221 6.50712
LeftLeg  12.1295 -9.4665 -2.70872
LeftFoot  12.9557 -0.066439 -0.0586898
LeftToes  -1.45701e-009 4.75788e-011 -4.21586e-011
976
root  64.2937 37.9559 14.0053 -169.57 9.49479 -173.922
RightUpLeg  -16.2998 0.403209 -4.74542
RightLeg  16.2808 3.65917 0.673826
RightFoot  -11.7161 -0.0525196 8.45164
RightToes  1.33877e-009 0 -3.6325e-017
Spine  33.4482 0.94162 11.0609
Spine1  -10.5385 5.72115 -18.0093
HEad  -34.9607 -17.8673 13.2973
LeftShoulder1  1.13772 -14.1523 2.29013
LeftArm  -47.8327 -72.9071 -9.85221
LeftForeArm  -18.6925 2.50762 4.32964
LeftHand  -0.0114811 7.65598 1.28153
RightShoulder  0.814583 7.44671 -1.1383
RightArm  -44.0345 69.4586 1.53256
RightForeArm  -31.7134 -4.96754 -0.425267
RightHand  0.111946 2.05672 1.57879
LeftUpLeg  -33.5165 11.3702 5.66258
LeftLeg  12.4767 -10.8559 -3.61023
LeftFoot  12.8009 -0.394415 1.47538
LeftToes  -1.45701e-009 4.75788e-011 -4.21586e-011
977
root  64.1105 38.0608 13.6656 -168.084 9.1867 -173.686
RightUpLeg  -16.1001 -1.61168 -4.44171
RightLeg  13.7411 5.2904 0.468685
RightFoot  -10.5884 -0.130092 8.96056
RightToes  1.33877e-009 0 -3.6325e-017
Spine  34.0502 0.942074 10.9938
Spine1  -10.9546 5.7708 -18.4625
HEad  -36.0909 -17.8809 14.0513
LeftShoulder1  1.10774 -13.7082 2.29321
LeftArm  -49.7614 -73.1414 -2.86736
LeftForeArm  -23.6873 0.793614 1.37831
LeftHand  0.0513552 8.82443 3.22632
RightShoulder  0.702535 7.92163 -2.62436
RightArm  -44.022 67.7565 1.22887
RightForeArm  -33.1884 -4.85914 -0.753193
RightHand  0.115663 1.74693 1.72772
LeftUpLeg  -34.3633 10.8402 5.5216
LeftLeg  11.9301 -10.5128 -3.53012
LeftFoot  12.8711 -0.505972 1.99026
LeftToes  -1.45701e-009 4.75788e-011 -4.21586e-011
978
root  63.9849 38.1497 13.3522 -166.841 9.09989 -173.699
RightUpLeg  -15.9011 -2.92378 -4.31656
RightLeg  11.4748 6.21184 0.0688553
RightFoot  -9.42554 -0.213589 8.8792
RightToes  1.33877e-009 0 -3.6325e-017
Spine  34.8078 0.919282 10.327
Spine1  -11.5342 5.58344 -18.4712
HEad  -37.0877 -17.1173 15.1559
LeftShoulder1  1.07667 -13.4744 2.40462
LeftArm  -54.6567 -73.6471 1.80843
LeftForeArm  -22.2649 0.990441 2.02309
LeftHand  0.0270113 8.66019 2.49415
RightShoulder  0.683 8.05053 -2.88677
RightArm  -45.833 67.7424 -0.220826
RightForeArm  -33.4788 -4.79357 -1.06786
RightHand  0.0728637 1.63324 1.05685
LeftUpLeg  -34.904 8.22852 5.98637
LeftLeg  11.4127 -8.24932 -2.30169
LeftFoot  12.7479 -0.441779 1.70334
LeftToes  -1.45701e-009 4.75788e-011 -4.21586e-011
979
root  63.8491 38.1773 13.0376 -165.775 8.82172 -173.616
RightUpLeg  -15.7052 -4.02686 -4.17952
RightLeg  9.63636 6.93267 -0.234565
RightFoot  -8.43985 -0.297559 9.46783
RightToes  1.33877e-009 0 -3.6325e-017
Spine  35.236 0.752096 10.4227
Spine1  -11.7282 5.48237 -18.9645
HEad  -37.5653 -17.5069 15.7152
LeftShoulder1  0.930764 -12.9587 3.18441
LeftArm  -59.2883 -74.6901 5.12637
LeftForeArm  -21.6867 1.42005 3.0069
LeftHand  0.0269225 8.65873 2.48654
RightShoulder  0.75664 7.50334 -1.79651
RightArm  -49.1842 68.0717 -2.63073
RightForeArm  -33.7008 -4.6889 -1.61743
RightHand  0.122848 2.10951 1.72915
LeftUpLeg  -35.9937 8.80635 5.328
LeftLeg  12.0489 -8.95637 -2.69285
LeftFoot  12.389 -0.609504 2.54339
LeftToes  -1.45701e-009 4.75788e-011 -4.21586e-011
980
root  63.7188 38.1415 12.753 -164.909 8.5445 -173.586
RightUpLeg  -15.8071 -5.09063 -4.33526
RightLeg  8.85256 7.77902 -0.0586512
RightFoot  -8.16721 -0.338063 10.1658
RightToes  1.33877e-009 0 -3.6325e-017
Spine  35.6344 0.793465 10.3549
Spine1  -11.9792 5.40886 -18.7901
HEad  -37.9747 -17.1053 16.2411
LeftShoulder1  0.877913 -12.389 3.33227
LeftArm  -62.8524 -75.4138 9.62013
LeftForeArm  -23.4376 1.29565 2.54369
LeftHand  0.0087875 7.72389 2.3949
RightShoulder  0.711708 7.37213 -2.16781
RightArm  -50.4371 67.4351 -4.46312
RightForeArm  -34.3879 -4.64142 -1.74839
RightHand  0.123507 2.51275 1.61526
LeftUpLeg  -37.539 11.7633 3.54027
LeftLeg  13.6724 -11.9073 -4.14923
LeftFoot  11.6471 -0.857648 3.86422
LeftToes  -1.45701e-009 4.75788e-011 -4.21586e-011
981
root  63.6189 38.1521 12.5042 -164.288 8.67892 -173.572
RightUpLeg  -15.6411 -5.42627 -4.43911
RightLeg  7.76127 8.15867 -0.211837
RightFoot  -7.6191 -0.390996 10.421
RightToes  1.33877e-009 0 -3.6325e-017
Spine  36.0944 0.845793 10.257
Spine1  -12.014 5.55671 -19.251
HEad  -38.1468 -17.3654 16.9098
LeftShoulder1  0.851176 -11.7598 3.27055
LeftArm  -67.7667 -76.2407 13.9591
LeftForeArm  -23.0131 0.477022 2.86512
LeftHand  0.00698415 8.14178 2.25821
RightShoulder  0.631248 7.55514 -3.1293
RightArm  -51.0378 66.693 -5.55853
RightForeArm  -34.2051 -4.62011 -1.9062
RightHand  0.131361 2.45685 1.74614
LeftUpLeg  -38.104 10.7755 3.58629
LeftLeg  14.3061 -10.7923 -3.62002
LeftFoot  11.0472 -0.872841 4.06308
LeftToes  -1.45701e-009 4.75788e-011 -4.21586e-011
982
root  63.5098 38.1829 12.2583 -163.674 8.49437 -173.721
RightUpLeg  -15.4812 -5.9598 -4.72012
RightLeg  6.74119 8.40527 -0.284246
RightFoot  -6.76565 -0.46451 10.4342
RightToes  1.33877e-009 0 -3.6325e-017
Spine  36.2129 0.741378 10.2824
Spine1  -11.9361 5.54735 -19.6569
HEad  -38.1068 -17.189 17.4059
LeftShoulder1  0.80487 -11.2609 3.4175
LeftArm  -68.4738 -75.6987 18.1966
LeftForeArm  -27.5554 -1.36496 0.734291
LeftHand  0.0262858 6.89243 4.27831
RightShoulder  0.635695 7.55528 -3.07582
RightArm  -52.3895 66.3459 -6.46673
RightForeArm  -35.1177 -4.53066 -2.2244
RightHand  0.165475 2.58682 2.20436
LeftUpLeg  -38.3843 7.9961 4.26073
LeftLeg  14.3701 -8.23689 -2.4808
LeftFoot  10.7094 -0.787401 3.70903
LeftToes  -1.45701e-009 4.75788e-011 -4.21586e-011
983
root  63.4115 38.1619 12.0274 -163.315 8.51364 -173.601
RightUpLeg  -15.3556 -6.27973 -4.74529
RightLeg  6.36768 8.63715 -0.27464
RightFoot  -6.4475 -0.507526 10.8329
RightToes  1.33877e-009 0 -3.6325e-017
Spine  36.529 0.504193 10.8926
Spine1  -11.9493 5.51268 -20.7133
HEad  -38.2761 -16.8905 18.2226
LeftShoulder1  0.712013 -10.9243 3.99918
LeftArm  -76.6013 -76.8931 23.4378
LeftForeArm  -24.2621 -0.302043 2.7037
LeftHand  0.00545342 6.90844 3.07368
RightShoulder  0.67341 7.28264 -2.50855
RightArm  -53.9032 65.9319 -7.61611
RightForeArm  -37.5947 -4.38712 -2.52399
RightHand  0.139946 2.54528 1.84606
LeftUpLeg  -39.3531 11.5152 2.28094
LeftLeg  15.8212 -11.6348 -3.88209
LeftFoot  10.1753 -1.05208 5.20401
LeftToes  -1.45701e-009 4.75788e-011 -4.21586e-011
